<?xml version="1.0" standalone="no"?>
<!DOCTYPE svg PUBLIC "-//W3C//DTD SVG 20010904//EN"
 "http://www.w3.org/TR/2001/REC-SVG-20010904/DTD/svg10.dtd">
<svg version="1.0" xmlns="http://www.w3.org/2000/svg"
 width="299.000000pt" height="169.000000pt" viewBox="0 0 299.000000 169.000000"
 preserveAspectRatio="xMidYMid meet">
<metadata>
Created by potrace 1.16, written by Peter Selinger 2001-2019
</metadata>
<g transform="translate(0.000000,169.000000) scale(0.100000,-0.100000)"
fill="#000000" stroke="none">
<path d="M2920 459 c-7 -17 -20 -37 -28 -46 -14 -13 -13 -18 1 -43 10 -15 17
-49 17 -74 0 -37 -4 -48 -26 -63 -44 -31 -134 -116 -134 -127 0 -6 -14 -17
-31 -25 -35 -15 -57 -59 -37 -73 7 -4 79 -8 161 -8 l147 0 0 239 0 239 -22 6
c-34 9 -35 8 -48 -25z"/>
<path d="M0 184 l0 -184 221 0 c196 0 220 2 209 15 -7 8 -21 15 -31 15 -10 0
-21 5 -24 10 -3 6 -15 10 -25 10 -10 0 -21 6 -23 13 -3 7 -6 5 -6 -5 -1 -20
-36 -24 -61 -8 -12 7 -8 12 18 21 30 10 31 12 15 25 -10 7 -14 14 -9 14 5 0 0
8 -10 17 -11 10 -27 30 -37 45 -16 26 -77 66 -77 51 0 -4 -7 2 -16 13 -8 10
-12 13 -8 5 5 -9 3 -12 -5 -7 -6 4 -9 11 -7 15 3 4 -6 19 -20 34 -13 14 -24
34 -24 44 0 13 -12 22 -40 30 l-40 10 0 -183z"/>
</g>
</svg>
